<?xml version="1.0" encoding="UTF-8"?>
<!DOCTYPE svg PUBLIC "-//W3C//DTD SVG 1.1//EN" "http://www.w3.org/Graphics/SVG/1.1/DTD/svg11.dtd">
<!-- Creator: CorelDRAW (Evaluation Version) -->
<svg xmlns="http://www.w3.org/2000/svg" xml:space="preserve" width="210mm" height="297mm" version="1.1" style="shape-rendering:geometricPrecision; text-rendering:geometricPrecision; image-rendering:optimizeQuality; fill-rule:evenodd; clip-rule:evenodd"
viewBox="0 0 21000 29700"
 xmlns:xlink="http://www.w3.org/1999/xlink"
 xmlns:xodm="http://www.corel.com/coreldraw/odm/2003">
 <defs>
  <style type="text/css">
   <![CDATA[
    .str0 {stroke:#373435;stroke-width:7.62;stroke-miterlimit:22.9256}
    .str1 {stroke:black;stroke-width:443.86;stroke-miterlimit:22.9256}
    .fil2 {fill:none}
    .fil0 {fill:black}
    .fil1 {fill:white}
   ]]>
  </style>
 </defs>
 <g id="Layer_x0020_1">
  <metadata id="CorelCorpID_0Corel-Layer"/>
  <g id="_2063220606080">
   <path class="fil0" d="M7738.37 2990.77c3193.04,-1244.41 6790.32,335.26 8034.73,3528.3 1244.42,3193.04 -335.25,6790.32 -3528.29,8034.73 -3193.04,1244.42 -6790.32,-335.25 -8034.74,-3528.29 -1244.41,-3193.04 335.26,-6790.32 3528.3,-8034.74z"/>
   <path class="fil1" d="M6249.4 3996.53c-81.27,404.78 763.34,475.8 1392.89,1061.05 1065.43,1132.75 930.88,2040.95 187.38,3024.47 -794.08,1377.92 -2052.64,3642.01 -1154.07,5839.63 -3365.42,-2195.37 -3863.03,-7412.44 -426.2,-9925.15z"/>
   <path class="fil0 str0" d="M6141.24 4780.01c875.73,178.79 1546.04,986.64 1716.97,2022.57 -569.04,-809.94 -1397.22,196.16 -1702.29,1531.5 -97.52,-544.49 109.92,-1121.22 456.01,-1712.59 -560.13,655.79 -845.01,1660.89 -863.21,2751 -225.65,-1085.16 56.16,-2238.21 627.22,-3271.79 -845.8,899.83 -1378.9,2331.04 -1030.05,4370.89 -621.8,-1068.49 -403.35,-2798.29 356.95,-4400.11 -1180.69,1761 -1208.3,4408.69 -141.75,6065.33 -1403.72,-1534.12 -1569.09,-5032.74 580.15,-7356.8z"/>
   <path class="fil1" d="M7804.68 14468.13c389.09,-138.06 -29.06,-818.76 149.99,-1659.47 425.13,-1495.83 1200.88,-1878.55 2473.15,-1703.28 1497.9,85.37 4593.57,-236.66 5646.85,-2006.32 -69.86,3778.76 -4349.3,7028.5 -8269.99,5369.07z"/>
   <path class="fil0 str0" d="M8539.38 14218.92c-296.14,-843.31 -90.21,-1852.79 711.05,-2531.29 -402.93,904.12 950.37,1148.45 2252.93,724.73 -417.2,363.21 -1018.63,481.26 -1703.8,487.85 850.34,144.03 1859.13,-127.48 2803.97,-671.5 -815.4,750.73 -1949.59,1100.84 -3129.73,1141.38 1206.4,263.9 2708.3,-13.36 4279.74,-1359.92 -597.73,1082.14 -2194.33,1782.69 -3959.28,1952.55 2117.37,109.19 4403.71,-1226.36 5277.85,-2992.11 -595.91,1992.2 -3434.94,3899.61 -6532.73,3248.31z"/>
   <path class="fil1" d="M16032.11 7997.95c-307.22,-275.82 -766.06,433.25 -1590.13,677.73 -1517.14,341.39 -2224.04,-157.15 -2678.07,-1358.51 -640.83,-1356.58 -2555.41,-3840.54 -4613.26,-3920.08 3553.9,-2014.27 8465.51,363.81 8881.46,4600.86z"/>
   <path class="fil0 str0" d="M15401.37 7488.12c-599.27,663.14 -1584.43,964.65 -2563.35,585.06 986.76,-78.12 554.67,-1383.66 -440.01,-2325.37 518.42,192.91 909.54,664.8 1242.76,1263.52 -279.85,-815.78 -1000.44,-1572.18 -1929.83,-2142.17 1049.13,357.51 1898.67,1186.49 2498.26,2203.79 -344.71,-1185.85 -1305.99,-2372.66 -3239.81,-3109.55 1236.22,7.92 2614.6,1075.63 3607.24,2544.83 -915.93,-1912.12 -3181.71,-3282.26 -5150.53,-3206.3 2034.77,-428.59 5067.01,1153.77 5975.27,4186.19z"/>
   <polygon class="fil1 str0" points="8144.09,7789 11873.65,7709.53 10074.02,10978.18 "/>
   <path class="fil2 str1" d="M7738.37 2990.77c3193.04,-1244.41 6790.32,335.26 8034.73,3528.3 1244.42,3193.04 -335.25,6790.32 -3528.29,8034.73 -3193.04,1244.42 -6790.32,-335.25 -8034.74,-3528.29 -1244.41,-3193.04 335.26,-6790.32 3528.3,-8034.74z"/>
  </g>
 </g>
</svg>
